<svg viewBox="-2.4 -2.4 28.80 28.80" fill="none" xmlns="http://www.w3.org/2000/svg" stroke="#2d2d2d" transform="rotate(0)"><g id="SVGRepo_bgCarrier" stroke-width="0"><path transform="translate(-2.4, -2.4), scale(0.8999999999999999)" d="M16,31.294271549830835C18.149774800873544,31.093202441904698,19.53678971139677,28.894808859462554,21.059657577492338,27.36417698241091C22.26977393787016,26.14789110668033,22.579899325264982,24.149717792352575,24.026372538526992,23.226978294730824C26.154851095166272,21.869171446982282,29.761845018029256,23.029683312859074,31.1549596194306,20.924144875967354C32.36758109320531,19.091401812428543,30.704627960040675,16.539934099163382,29.765311615607548,14.553207449447838C28.94141811145986,12.8106090256915,27.262929936784758,11.701449279622915,26.076321590611684,10.18243301721911C25.04104747098628,8.857144661690045,24.1840655706209,7.46798379560299,23.17790844232143,6.1204565931913795C21.86466599720087,4.361655836939329,21.227461856082368,1.7967555307611978,19.195380146882677,0.9669183497461002C17.242748015206367,0.16952583527485376,15.07007283962534,1.4834254940807918,13.018158719583175,1.9715397304651976C11.002540317303955,2.451019854736021,8.72095642285802,2.470014543982428,7.158228003333331,3.830344878859684C5.59810342994827,5.188408606918484,5.457297753261486,7.528024628121356,4.517950989127591,9.370835912724331C3.6238357911716026,11.124911872146553,2.175264429950374,12.58366186545393,1.7199776006489245,14.499109166139464C1.2445701622774155,16.4992063267617,1.34055489177817,18.605956807161594,1.8493864029822955,20.597813071452222C2.371754933577369,22.64266093763849,3.130430619124398,24.764077280094803,4.702066892825831,26.17270466190607C6.256670098967916,27.56606563267693,8.599243663045895,27.489826349400552,10.500639814980055,28.351765208499465C12.415111213854697,29.219631324482144,13.90713694116459,31.490017684765814,16,31.294271549830835" fill="#fdb82c" strokewidth="0"></path></g><g id="SVGRepo_tracerCarrier" stroke-linecap="round" stroke-linejoin="round"></g><g id="SVGRepo_iconCarrier"> <path fill-rule="evenodd" clip-rule="evenodd" d="M3.46447 20.5355C4.92893 22 7.28595 22 12 22C16.714 22 19.0711 22 20.5355 20.5355C22 19.0711 22 16.714 22 12C22 7.28595 22 4.92893 20.5355 3.46447C19.0711 2 16.714 2 12 2C7.28595 2 4.92893 2 3.46447 3.46447C2 4.92893 2 7.28595 2 12C2 16.714 2 19.0711 3.46447 20.5355ZM18.75 16C18.75 16.4142 18.4142 16.75 18 16.75H6C5.58579 16.75 5.25 16.4142 5.25 16C5.25 15.5858 5.58579 15.25 6 15.25H18C18.4142 15.25 18.75 15.5858 18.75 16ZM18 12.75C18.4142 12.75 18.75 12.4142 18.75 12C18.75 11.5858 18.4142 11.25 18 11.25H6C5.58579 11.25 5.25 11.5858 5.25 12C5.25 12.4142 5.58579 12.75 6 12.75H18ZM18.75 8C18.75 8.41421 18.4142 8.75 18 8.75H6C5.58579 8.75 5.25 8.41421 5.25 8C5.25 7.58579 5.58579 7.25 6 7.25H18C18.4142 7.25 18.75 7.58579 18.75 8Z" fill="#2d2d2d"></path> </g></svg><svg viewBox="-2.4 -2.4 28.80 28.80" fill="none" xmlns="http://www.w3.org/2000/svg" stroke="#2d2d2d" transform="rotate(0)"><g id="SVGRepo_bgCarrier" stroke-width="0"><path transform="translate(-2.4, -2.4), scale(0.8999999999999999)" d="M16,31.294271549830835C18.149774800873544,31.093202441904698,19.53678971139677,28.894808859462554,21.059657577492338,27.36417698241091C22.26977393787016,26.14789110668033,22.579899325264982,24.149717792352575,24.026372538526992,23.226978294730824C26.154851095166272,21.869171446982282,29.761845018029256,23.029683312859074,31.1549596194306,20.924144875967354C32.36758109320531,19.091401812428543,30.704627960040675,16.539934099163382,29.765311615607548,14.553207449447838C28.94141811145986,12.8106090256915,27.262929936784758,11.701449279622915,26.076321590611684,10.18243301721911C25.04104747098628,8.857144661690045,24.1840655706209,7.46798379560299,23.17790844232143,6.1204565931913795C21.86466599720087,4.361655836939329,21.227461856082368,1.7967555307611978,19.195380146882677,0.9669183497461002C17.242748015206367,0.16952583527485376,15.07007283962534,1.4834254940807918,13.018158719583175,1.9715397304651976C11.002540317303955,2.451019854736021,8.72095642285802,2.470014543982428,7.158228003333331,3.830344878859684C5.59810342994827,5.188408606918484,5.457297753261486,7.528024628121356,4.517950989127591,9.370835912724331C3.6238357911716026,11.124911872146553,2.175264429950374,12.58366186545393,1.7199776006489245,14.499109166139464C1.2445701622774155,16.4992063267617,1.34055489177817,18.605956807161594,1.8493864029822955,20.597813071452222C2.371754933577369,22.64266093763849,3.130430619124398,24.764077280094803,4.702066892825831,26.17270466190607C6.256670098967916,27.56606563267693,8.599243663045895,27.489826349400552,10.500639814980055,28.351765208499465C12.415111213854697,29.219631324482144,13.90713694116459,31.490017684765814,16,31.294271549830835" fill="#fdb82c" strokewidth="0"></path></g><g id="SVGRepo_tracerCarrier" stroke-linecap="round" stroke-linejoin="round"></g><g id="SVGRepo_iconCarrier"> <path fill-rule="evenodd" clip-rule="evenodd" d="M3.46447 20.5355C4.92893 22 7.28595 22 12 22C16.714 22 19.0711 22 20.5355 20.5355C22 19.0711 22 16.714 22 12C22 7.28595 22 4.92893 20.5355 3.46447C19.0711 2 16.714 2 12 2C7.28595 2 4.92893 2 3.46447 3.46447C2 4.92893 2 7.28595 2 12C2 16.714 2 19.0711 3.46447 20.5355ZM18.75 16C18.75 16.4142 18.4142 16.75 18 16.75H6C5.58579 16.75 5.25 16.4142 5.25 16C5.25 15.5858 5.58579 15.25 6 15.25H18C18.4142 15.25 18.75 15.5858 18.75 16ZM18 12.75C18.4142 12.75 18.75 12.4142 18.75 12C18.75 11.5858 18.4142 11.25 18 11.25H6C5.58579 11.25 5.25 11.5858 5.25 12C5.25 12.4142 5.58579 12.75 6 12.75H18ZM18.75 8C18.75 8.41421 18.4142 8.75 18 8.75H6C5.58579 8.75 5.25 8.41421 5.25 8C5.25 7.58579 5.58579 7.25 6 7.25H18C18.4142 7.25 18.75 7.58579 18.75 8Z" fill="#2d2d2d"></path> </g></svg>