<?xml version="1.0" encoding="UTF-8"?>
<svg version="1.1" xmlns="http://www.w3.org/2000/svg" width="512" height="512">
<path d="M0 0 C1.01790619 0.00215515 2.03581238 0.0043103 3.08456421 0.00653076 C17.69363523 0.05620146 32.02575853 0.30709809 46.375 3.3125 C47.34985352 3.51117676 48.32470703 3.70985352 49.32910156 3.91455078 C88.37782454 12.08284366 124.83813271 27.70153311 156.375 52.3125 C157.27089844 52.99699219 158.16679687 53.68148437 159.08984375 54.38671875 C174.64561709 66.50203669 189.29582193 80.73146847 201.375 96.3125 C202.14972656 97.27027344 202.92445313 98.22804688 203.72265625 99.21484375 C238.26056965 142.61986011 256.81394766 197.76289597 256.69067383 253.03979492 C256.6875221 255.97938487 256.71104926 258.9179558 256.73632812 261.85742188 C256.78098737 275.23056192 255.57551542 288.12666711 253.375 301.3125 C253.09281616 303.01805054 253.09281616 303.01805054 252.80493164 304.75805664 C245.77946967 343.86954746 228.79665906 381.05202178 204.375 412.3125 C203.61574219 413.28445313 202.85648437 414.25640625 202.07421875 415.2578125 C189.73986402 430.63741644 175.93895499 445.19015196 160.375 457.3125 C159.43914062 458.07691406 158.50328125 458.84132813 157.5390625 459.62890625 C125.58628299 485.2157721 86.41988322 501.72551276 46.375 509.3125 C45.56562988 509.47621094 44.75625977 509.63992188 43.92236328 509.80859375 C13.88110013 515.67977137 -20.7615176 514.58512909 -50.625 508.3125 C-52.14794678 507.99901611 -52.14794678 507.99901611 -53.70166016 507.67919922 C-90.84546555 499.78695344 -125.70945445 483.68345578 -155.625 460.3125 C-156.59695312 459.55324219 -157.56890625 458.79398437 -158.5703125 458.01171875 C-173.94991644 445.67736402 -188.50265196 431.87645499 -200.625 416.3125 C-201.77162109 414.90871094 -201.77162109 414.90871094 -202.94140625 413.4765625 C-210.77816849 403.69004401 -217.25970982 393.09854746 -223.625 382.3125 C-224.01961426 381.64492676 -224.41422852 380.97735352 -224.82080078 380.28955078 C-237.79696384 358.00791592 -246.08228285 333.05826387 -251.4375 307.9375 C-251.63255127 307.02419922 -251.82760254 306.11089844 -252.02856445 305.16992188 C-255.27291121 289.01545066 -256.00008268 273.12281746 -255.9375 256.6875 C-255.93534485 255.66959381 -255.9331897 254.65168762 -255.93096924 253.60293579 C-255.88129854 238.99386477 -255.63040191 224.66174147 -252.625 210.3125 C-252.42632324 209.33764648 -252.22764648 208.36279297 -252.02294922 207.35839844 C-241.93598313 159.13741149 -219.89911449 114.53770064 -185.40722656 79.14160156 C-183.63301167 77.32072238 -181.87518486 75.48496071 -180.1171875 73.6484375 C-173.01562574 66.30860161 -165.60158994 59.73928631 -157.40917969 53.64355469 C-155.59628085 52.2910746 -153.80174757 50.91656557 -152.0078125 49.5390625 C-143.60124472 43.15234877 -134.85975388 37.61076633 -125.65234375 32.45166016 C-123.78933792 31.40484113 -121.94116361 30.33571119 -120.09375 29.26171875 C-83.4933446 8.69459905 -41.63834482 -0.15855121 0 0 Z M-99.6484375 156.05859375 C-104.29501875 161.87353502 -106.1315361 166.2070115 -105.9296875 173.75390625 C-105.20656609 179.82627197 -102.57263437 183.85911293 -97.875 187.6875 C-92.15207911 191.99171361 -85.13909338 192.5617831 -78.20046997 192.57319641 C-77.14724385 192.57893473 -77.14724385 192.57893473 -76.07274044 192.58478898 C-73.74389046 192.59502364 -71.41529144 192.59114519 -69.08642578 192.5871582 C-67.40690892 192.59150998 -65.72739404 192.59669468 -64.04788208 192.60264587 C-59.50235228 192.61599728 -54.95690584 192.61661883 -50.41136026 192.61408257 C-46.60934246 192.61301021 -42.80734133 192.61790304 -39.00532711 192.622688 C-30.03169618 192.63376992 -21.05810711 192.63422804 -12.08447266 192.62817383 C-2.84361559 192.62213495 6.39708918 192.6344459 15.63792026 192.6557439 C23.58722649 192.67338792 31.53648437 192.67935683 39.48580945 192.67610615 C44.22675605 192.67429757 48.96759402 192.67688698 53.7085228 192.69082069 C58.16883585 192.70344002 62.62891234 192.70141629 67.08922195 192.68840981 C68.72016227 192.68605336 70.35111945 192.68874507 71.98204041 192.69703293 C86.7112906 192.93802146 86.7112906 192.93802146 99.8125 186.9375 C104.50113315 182.13450994 106.4603049 177.71094606 106.6875 171.0625 C106.59124677 165.20067822 104.73256266 160.83207526 100.7265625 156.55078125 C95.1422337 151.51513105 90.57279227 150.06442975 82.99406433 150.04507446 C82.26039731 150.04054335 81.52673029 150.03601224 80.77083093 150.03134382 C78.31745244 150.0187043 75.86429607 150.02031988 73.41088867 150.02197266 C71.64975194 150.0159871 69.88861784 150.00918149 68.12748718 150.00161743 C63.34639282 149.98395238 58.56537005 149.97926182 53.78424621 149.97798586 C50.79594348 149.97656392 47.80765894 149.97229348 44.81936073 149.96699142 C34.3905484 149.94848904 23.96178719 149.94032102 13.53295898 149.94189453 C3.81778025 149.94309578 -5.89717627 149.92199713 -15.61229879 149.8904072 C-23.95811373 149.86423859 -32.30385613 149.85352749 -40.64971179 149.85480535 C-45.63212724 149.85531484 -50.61434522 149.84963896 -55.59671974 149.82844925 C-60.28438566 149.80905721 -64.97166595 149.80894901 -69.65934563 149.82348251 C-71.37659393 149.82557055 -73.09386642 149.82086998 -74.8110733 149.8087616 C-88.1821584 149.63222982 -88.1821584 149.63222982 -99.6484375 156.05859375 Z M-101.0625 242.75 C-105.56010211 248.65543878 -106.51175313 253.96030632 -105.625 261.3125 C-103.82892187 267.41056166 -100.00527367 271.9737531 -94.625 275.3125 C-90.02151291 277.1469639 -86.14700092 277.56714264 -81.20646667 277.57992554 C-80.4808179 277.58445665 -79.75516912 277.58898776 -79.00753099 277.59365618 C-76.58723046 277.6062696 -74.16715584 277.60468181 -71.74682617 277.60302734 C-70.00686861 277.60901452 -68.26691371 277.6158205 -66.52696228 277.62338257 C-61.80784128 277.64103078 -57.08879283 277.64573746 -52.36964202 277.64701414 C-49.41901571 277.648437 -46.46840777 277.65270915 -43.51778603 277.65800858 C-33.21749325 277.67650514 -22.91725219 277.68467968 -12.61694336 277.68310547 C-3.0261626 277.68190426 6.56439305 277.70300357 16.15511686 277.7345928 C24.39820849 277.76077262 32.64122667 277.77147204 40.88435954 277.77019465 C45.80363583 277.76968551 50.72271203 277.77534228 55.64194679 277.79655075 C60.27053472 277.8159618 64.89873225 277.81603804 69.52733421 277.80151749 C71.2215876 277.79943183 72.9158656 277.80411578 74.6100769 277.8162384 C88.45439355 278.09734695 88.45439355 278.09734695 100.23284626 271.57294273 C105.28822009 266.13900804 106.87002014 261.25138572 106.68359375 253.87109375 C105.8737334 247.1564288 102.38489299 242.80904429 97.3515625 238.5390625 C92.43503996 235.48809792 87.6409481 235.05978221 81.95646667 235.04507446 C81.2308179 235.04054335 80.50516912 235.03601224 79.75753099 235.03134382 C77.33723046 235.0187304 74.91715584 235.02031819 72.49682617 235.02197266 C70.75686861 235.01598548 69.01691371 235.0091795 67.27696228 235.00161743 C62.55784128 234.98396922 57.83879283 234.97926254 53.11964202 234.97798586 C50.16901571 234.976563 47.21840777 234.97229085 44.26778603 234.96699142 C33.96749325 234.94849486 23.66725219 234.94032032 13.36694336 234.94189453 C3.7761626 234.94309574 -5.81439305 234.92199643 -15.40511686 234.8904072 C-23.64820849 234.86422738 -31.89122667 234.85352796 -40.13435954 234.85480535 C-45.05363583 234.85531449 -49.97271203 234.84965772 -54.89194679 234.82844925 C-59.52053472 234.8090382 -64.14873225 234.80896196 -68.77733421 234.82348251 C-70.4715876 234.82556817 -72.1658656 234.82088422 -73.8600769 234.8087616 C-88.89208618 234.68683144 -88.89208618 234.68683144 -101.0625 242.75 Z M-101.625 328.3125 C-105.64060364 333.93434509 -106.67590478 339.5087041 -105.625 346.3125 C-103.77636213 352.4819187 -99.9782933 356.81783452 -94.625 360.3125 C-90.41421469 362.38251408 -86.91016818 362.56800879 -82.24406433 362.57992554 C-81.51039731 362.58445665 -80.77673029 362.58898776 -80.02083093 362.59365618 C-77.56745244 362.6062957 -75.11429607 362.60468012 -72.66088867 362.60302734 C-70.89975194 362.6090129 -69.13861784 362.61581851 -67.37748718 362.62338257 C-62.59639282 362.64104762 -57.81537005 362.64573818 -53.03424621 362.64701414 C-50.04594348 362.64843608 -47.05765894 362.65270652 -44.06936073 362.65800858 C-33.6405484 362.67651096 -23.21178719 362.68467898 -12.78295898 362.68310547 C-3.06778025 362.68190422 6.64717627 362.70300287 16.36229879 362.7345928 C24.70811373 362.76076141 33.05385613 362.77147251 41.39971179 362.77019465 C46.38212724 362.76968516 51.36434522 362.77536104 56.34671974 362.79655075 C61.03438566 362.81594279 65.72166595 362.81605099 70.40934563 362.80151749 C72.12659393 362.79942945 73.84386642 362.80413002 75.5610733 362.8162384 C88.9321584 362.99277018 88.9321584 362.99277018 100.3984375 356.56640625 C104.85239806 350.99251919 106.80910305 346.81783555 106.62890625 339.5859375 C106.00326013 333.98399836 103.30787325 329.24537325 99.375 325.3125 C92.82536083 321.22585539 87.00228435 320.19034917 79.31123352 320.17205811 C78.26185231 320.16760142 78.26185231 320.16760142 77.19127148 320.1630547 C74.85316941 320.1544013 72.51511875 320.1528623 70.17700195 320.15136719 C68.49792879 320.14673659 66.81885667 320.1417116 65.13978577 320.13632202 C60.58170493 320.12321827 56.02363881 320.11675688 51.46554208 320.11231136 C48.61525733 320.10937703 45.76497657 320.10527152 42.91469383 320.10080719 C33.98941673 320.08713686 25.06414879 320.07746824 16.13886195 320.0736053 C5.849892 320.06912721 -4.43894494 320.05158894 -14.72787446 320.0226047 C-22.68985186 320.00095734 -30.65179193 319.99089937 -38.61379844 319.98956418 C-43.36486003 319.98851823 -48.1157965 319.9826554 -52.86682701 319.96474457 C-57.33939818 319.94821126 -61.81175088 319.94613381 -66.28434181 319.95488358 C-67.9201224 319.95565117 -69.55591498 319.95134804 -71.19166565 319.94142532 C-87.92129484 319.75639635 -87.92129484 319.75639635 -101.625 328.3125 Z " fill="#000000" transform="translate(255.625,-0.3125)"/>
</svg>
